# xmcd
#
# Track frame offsets:
#	150
#	18722
#	38684
#	57534
#	68961
#	83246
#	96911
#	120126
#	138676
#	158983
#	180202
#	193147
#
# Disc length: 2778 seconds
#
# Revision: 0
# Processed by: cddbd v1.5.1PL2 Copyright (c) Steve Scherf et al.
# Submitted via: EasyCDDAExtractor 10.0.1.1
#
DISCID=a20ad80c
DTITLE=Shirley Bassey - The Best
DYEAR=1900
DGENRE=Vocal
TTITLE0=All By Myself
TTITLE1=Never, Never, Never
TTITLE2=Natalie
TTITLE3=For All We Know
TTITLE4=Can You Read My Mind
TTITLE5=He's Out of My Life
TTITLE6=This Mascarade
TTITLE7=Don't Cry Out Loud
TTITLE8=And I Love You So
TTITLE9=Solitaire
TTITLE10=If and When
TTITLE11=Madley New York, New York
EXTD=
EXTT0=
EXTT1=
EXTT2=
EXTT3=
EXTT4=
EXTT5=
EXTT6=
EXTT7=
EXTT8=
EXTT9=
EXTT10=
EXTT11=
PLAYORDER=
